<?xml version="1.0" encoding="utf-8"?>
<!-- Generator: Adobe Illustrator 18.0.0, SVG Export Plug-In . SVG Version: 6.00 Build 0)  -->
<!DOCTYPE svg PUBLIC "-//W3C//DTD SVG 1.1//EN" "http://www.w3.org/Graphics/SVG/1.1/DTD/svg11.dtd">
<svg version="1.1" id="Layer_1" xmlns="http://www.w3.org/2000/svg" xmlns:xlink="http://www.w3.org/1999/xlink" x="0px" y="0px"
	 viewBox="0 0 100 100" enable-background="new 0 0 100 100" xml:space="preserve">
<path fill="#4F5B50" d="M29.8,29.8l-9.5-9.5C16.5,16.5,10,19.2,10,24.5V34c0,3.3,2.7,6,6,6l9.5,0C30.9,40,33.6,33.6,29.8,29.8z"/>
<path fill="#4F5B50" d="M90.2,56v14H90c0,11-7.8,20-17.5,20C62.8,90,55,81,55,70h-0.2c0.1-0.4,0.1-0.7,0.1-1.1v-7.6c0-2.7-2.2-5-5-5
	c-2.7,0-5,2.2-5,5v7.6c0,0.4,0,0.8,0.1,1.1H45c0,11-7.8,20-17.5,20C17.8,90,10,81,10,70V56c0-3.3,2.7-6,6-6h68.2
	C87.5,50,90.2,52.7,90.2,56z"/>
<path fill="#4F5B50" d="M41.1,100l4.6-4.7c2.3-2.4,6.1-2.4,8.5-0.1l4.8,4.7L41.1,100z"/>
</svg>
